<?xml version="1.0" encoding="UTF-8"?>
<svg width="240" height="50" xmlns="http://www.w3.org/2000/svg" viewBox="0 0 240 50">
  <g fill="none" fill-rule="evenodd">
    <path d="M32.7 9.5c-2.4-2.5-5.3-3.7-8.7-3.7-3.6 0-6.6 1.2-9 3.7-2.4 2.5-3.6 5.5-3.6 9 0 3.6 1.2 6.6 3.6 9.1 2.4 2.5 5.4 3.7 9 3.7 3.4 0 6.3-1.3 8.7-3.8 2.4-2.5 3.6-5.5 3.6-9 0-3.5-1.2-6.5-3.6-9zm-1.2 17c-2 2.1-4.5 3.1-7.5 3.1-3.1 0-5.7-1-7.7-3.1-2-2.1-3-4.6-3-7.6 0-2.9 1-5.4 3-7.5 2-2.1 4.6-3.1 7.7-3.1 3 0 5.5 1 7.5 3.1 2 2.1 3 4.6 3 7.5 0 3-1 5.5-3 7.6z" fill="#4CAF50"/>
    <path d="M85.7 13.8c0 2.7-1 4.9-2.9 6.7-2 1.8-4.5 2.7-7.7 2.7h-5.2v7.3h-2.3V6.2h7.5c3.1 0 5.7.9 7.6 2.7 1.9 1.7 3 3.9 3 6.9zm-3 0c0-4.6-3.3-7-10-7h-2.8v13.9h2.8c6.7 0 10-2.3 10-6.9zm27.4 8.3c0 3-1 5.3-3.1 7a11 11 0 01-7.7 2.5c-3.2 0-5.8-.9-7.9-2.6-2-1.7-3-4-3-6.9v-16h2.3v15.8c0 2.2.7 4 2.2 5.3 1.5 1.3 3.6 1.9 6.4 1.9 2.6 0 4.7-.7 6.2-2 1.5-1.3 2.3-3 2.3-5.1V6.2h2.3v15.9zm15.6-16v2.3h-7.6v23.5h-2.4V8.5h-7.7V6.3h17.7zm14.6 25.8l-8-11.6h-2.6v11.6h-2.3V6.2h5.7c5.9 0 8.9 2.4 8.9 7 0 3.7-2 6.1-6 7.4l8.3 11.5h-4zm-10.6-13.8h3c2.3 0 4-.5 5.1-1.5 1.2-1 1.8-2.5 1.8-4.4 0-1.8-.6-3.2-1.8-4.2-1.1-1-2.9-1.5-5.2-1.5h-3v11.6zm41 13.8h-3l-3.9-9.4h-10l-3.8 9.4h-2.9l10.9-24.9h1.8l10.9 24.9zm-7.9-11.8l-4.5-10.8-4.5 10.8h9zm23.4-14v2.2h-11.6v8.6h10.5v2.2h-10.5v10.5h11.7v2.3h-14V6.2h13.9zm19 25.8l-8-11.6h-2.6v11.6h-2.4V6.2h5.8c5.9 0 8.8 2.4 8.8 7 0 3.7-2 6.1-6 7.4l8.4 11.5h-4zm-10.6-13.8h3c2.3 0 4-.5 5.1-1.5 1.2-1 1.8-2.5 1.8-4.4 0-1.8-.6-3.2-1.8-4.2-1.1-1-2.9-1.5-5.2-1.5h-3v11.6zm41.2 13.8l-12.4-19.7V32h-2.3V6.2h2l12.4 19.8V6.2h2.3V32h-2zm13.9 0c-3.4 0-6.2-1.3-8.3-3.8a13 13 0 01-3.2-8.9c0-3.6 1-6.6 3.2-9 2.1-2.5 4.9-3.7 8.3-3.7 2.2 0 4.3.5 6.1 1.6 1.8 1 3.3 2.5 4.2 4.2l-1.9 1.1c-1.6-2.8-4.5-4.3-8.4-4.3-2.8 0-5 1-6.8 3-1.7 2-2.6 4.5-2.6 7.5 0 3 .9 5.5 2.7 7.5 1.8 2 4 3 6.7 3 3.8 0 6.7-1.7 8.7-5.3l1.8 1.1c-1 2-2.5 3.6-4.3 4.7-1.9 1-4 1.5-6.2 1.5z" fill="#FFF"/>
    <path d="M9 30.4l7.6-7.6 7.7 7.6 7.7-7.6 7.6 7.6 7.7-7.6 7.7 7.6" stroke="#4CAF50" stroke-width="2"/>
    <path d="M24.3 23.5l-7.7-7.6-7.6 7.6-7.7-7.6-7.6 7.6-7.7-7.6-7.7 7.6" stroke="#4CAF50" stroke-width="2" transform="translate(47 0)"/>
  </g>
</svg>
